REM DIRINDEX 1\2\6,1\2\7,1\2\8,1\2\9,1\3\10,1\3\11,1\4\12,1\4\13,1\4\14,1\5\15,1\5\16,1\5\17
REM DIRNAME folder01,folder02,folder03,folder04,folder05,folder06,folder07,folder08,folder09,folder10,folder11,folder12,folder13,folder14,folder15,folder16,folder17
TITLE ""
FILE "1900_3_011 sec02_0163_0179.mp3" MP3
  TRACK 01 AUDIO
    TITLE "0:"
    INDEX 01 00:00:00
  TRACK 02 AUDIO
    TITLE "17:cjc020_6293"
    INDEX 01 00:00:17
  TRACK 03 AUDIO
    TITLE "0:"
    INDEX 01 00:02:38
  TRACK 04 AUDIO
    TITLE "16:cjc020_6294"
    INDEX 01 00:02:47
  TRACK 05 AUDIO
    TITLE "0:"
    INDEX 01 00:03:70
  TRACK 06 AUDIO
    TITLE "17:cjc020_6295"
    INDEX 01 00:04:54
  TRACK 07 AUDIO
    TITLE "0:"
    INDEX 01 00:05:71
  TRACK 08 AUDIO
    TITLE "16:cjc020_6296"
    INDEX 01 00:06:00
  TRACK 09 AUDIO
    TITLE "0:"
    INDEX 01 00:07:43
  TRACK 10 AUDIO
    TITLE "17:cjc020_6297"
    INDEX 01 00:08:28
  TRACK 11 AUDIO
    TITLE "0:"
    INDEX 01 00:10:63
  TRACK 12 AUDIO
    TITLE "16:cjc020_6298"
    INDEX 01 00:10:74
  TRACK 13 AUDIO
    TITLE "0:"
    INDEX 01 00:12:24
  TRACK 14 AUDIO
    TITLE "17:cjc020_6299"
    INDEX 01 00:13:06
  TRACK 15 AUDIO
    TITLE "0:"
    INDEX 01 00:14:02
  TRACK 16 AUDIO
    TITLE "16:cjc020_6300"
    INDEX 01 00:14:07
  TRACK 17 AUDIO
    TITLE "0:"
    INDEX 01 00:15:13
  TRACK 18 AUDIO
    TITLE "17:cjc020_6301"
    INDEX 01 00:15:72
  TRACK 19 AUDIO
    TITLE "0:"
    INDEX 01 00:19:01
  TRACK 20 AUDIO
    TITLE "16:cjc020_6302"
    INDEX 01 00:19:07
  TRACK 21 AUDIO
    TITLE "0:"
    INDEX 01 00:20:22
  TRACK 22 AUDIO
    TITLE "17:cjc020_6303"
    INDEX 01 00:21:06
  TRACK 23 AUDIO
    TITLE "0:"
    INDEX 01 00:22:19
  TRACK 24 AUDIO
    TITLE "16:cjc020_6304"
    INDEX 01 00:22:23
  TRACK 25 AUDIO
    TITLE "0:"
    INDEX 01 00:23:57
  TRACK 26 AUDIO
    TITLE "17:cjc020_6305"
    INDEX 01 00:24:37
  TRACK 27 AUDIO
    TITLE "0:"
    INDEX 01 00:25:27
  TRACK 28 AUDIO
    TITLE "16:cjc020_6306"
    INDEX 01 00:25:31
  TRACK 29 AUDIO
    TITLE "0:"
    INDEX 01 00:26:46
  TRACK 30 AUDIO
    TITLE "17:cjc020_6307"
    INDEX 01 00:27:30
  TRACK 31 AUDIO
    TITLE "0:"
    INDEX 01 00:28:45
  TRACK 32 AUDIO
    TITLE "16:cjc020_6308"
    INDEX 01 00:28:49
  TRACK 33 AUDIO
    TITLE "0:"
    INDEX 01 00:29:64
  TRACK 34 AUDIO
    TITLE "17:cjc020_6309"
    INDEX 01 00:30:48
  TRACK 35 AUDIO
    TITLE "0:"
    INDEX 01 00:31:53
  TRACK 36 AUDIO
    TITLE "16:cjc020_6310"
    INDEX 01 00:31:59
  TRACK 37 AUDIO
    TITLE "0:"
    INDEX 01 00:33:01
  TRACK 38 AUDIO
    TITLE "17:cjc020_6311"
    INDEX 01 00:33:64
  TRACK 39 AUDIO
    TITLE "0:"
    INDEX 01 00:35:04
  TRACK 40 AUDIO
    TITLE "16:cjc020_6312"
    INDEX 01 00:35:10
  TRACK 41 AUDIO
    TITLE "0:"
    INDEX 01 00:36:31
  TRACK 42 AUDIO
    TITLE "17:cjc020_6313"
    INDEX 01 00:37:18
  TRACK 43 AUDIO
    TITLE "0:"
    INDEX 01 00:38:14
  TRACK 44 AUDIO
    TITLE "16:cjc020_6314"
    INDEX 01 00:38:18
  TRACK 45 AUDIO
    TITLE "0:"
    INDEX 01 00:39:25
  TRACK 46 AUDIO
    TITLE "17:cjc020_6315"
    INDEX 01 00:40:09
  TRACK 47 AUDIO
    TITLE "0:"
    INDEX 01 00:41:04
  TRACK 48 AUDIO
    TITLE "16:cjc020_6316"
    INDEX 01 00:41:12
  TRACK 49 AUDIO
    TITLE "0:"
    INDEX 01 00:42:04
  TRACK 50 AUDIO
    TITLE "17:cjc020_6317"
    INDEX 01 00:42:63
  TRACK 51 AUDIO
    TITLE "0:"
    INDEX 01 00:43:68
  TRACK 52 AUDIO
    TITLE "16:cjc020_6318"
    INDEX 01 00:43:74
  TRACK 53 AUDIO
    TITLE "0:"
    INDEX 01 00:45:10
  TRACK 54 AUDIO
    TITLE "17:cjc020_6319"
    INDEX 01 00:45:71
  TRACK 55 AUDIO
    TITLE "0:"
    INDEX 01 00:47:15
  TRACK 56 AUDIO
    TITLE "16:cjc020_6320"
    INDEX 01 00:47:17
  TRACK 57 AUDIO
    TITLE "0:"
    INDEX 01 00:48:24
  TRACK 58 AUDIO
    TITLE "17:cjc020_6321"
    INDEX 01 00:49:06
  TRACK 59 AUDIO
    TITLE "0:"
    INDEX 01 00:50:07
  TRACK 60 AUDIO
    TITLE "16:cjc020_6322"
    INDEX 01 00:50:15
  TRACK 61 AUDIO
    TITLE "0:"
    INDEX 01 00:51:46
  TRACK 62 AUDIO
    TITLE "17:cjc020_6323"
    INDEX 01 00:52:28
  TRACK 63 AUDIO
    TITLE "0:"
    INDEX 01 00:53:47
  TRACK 64 AUDIO
    TITLE "16:cjc020_6324"
    INDEX 01 00:53:51
  TRACK 65 AUDIO
    TITLE "0:"
    INDEX 01 00:54:34
  TRACK 66 AUDIO
    TITLE "17:cjc020_6325"
    INDEX 01 00:55:30
  TRACK 67 AUDIO
    TITLE "0:"
    INDEX 01 00:56:49
  TRACK 68 AUDIO
    TITLE "16:cjc020_6326"
    INDEX 01 00:56:57
  TRACK 69 AUDIO
    TITLE "0:"
    INDEX 01 00:58:22
